# xmcd
#
# Track frame offsets:
#	299
#	14954
#	27681
#	59634
#	85654
#	110058
#	125390
#
# Disc length: 2015 seconds
#
# Revision: 2
# Processed by: cddbd v1.5.1PL2 Copyright (c) Steve Scherf et al.
# Submitted via: MusicManager 7.3.0.0 
#
DISCID=6607dc07
DTITLE=Bob Dylan - Bob Dylan/ The Reissue Sample
DYEAR=1900
DGENRE=
TTITLE0=All I Really Want to Do
TTITLE1=Love Minus Zero/ No Limit
TTITLE2=Stuck inside of Mobile
TTITLE3=Tangled Up in Blue
TTITLE4=Gotta Serve Somebody
TTITLE5=Moonlight
TTITLE6=Cold Irons Bound
EXTD=
EXTT0=
EXTT1=
EXTT2=
EXTT3=
EXTT4=
EXTT5=
EXTT6=
PLAYORDER=
